<svg width="92" height="92" viewBox="0 0 92 92" fill="none" xmlns="http://www.w3.org/2000/svg">
<path d="M17.25 82.4166L32.5833 67.0833M40.25 67.0833L55.5833 82.4166M36.4167 67.0833V86.25" stroke="#3F4946" stroke-width="5.75" stroke-linecap="round" stroke-linejoin="round"/>
<path d="M7.66669 45.5208C7.66669 37.615 7.66669 33.6621 11.5964 31.206C15.526 28.75 21.8507 28.75 34.5 28.75H38.3334C50.9826 28.75 57.3072 28.75 61.2371 31.206C65.1667 33.6621 65.1667 37.615 65.1667 45.5208V50.3125C65.1667 58.2184 65.1667 62.1713 61.2371 64.6273C57.3072 67.0833 50.9826 67.0833 38.3334 67.0833H34.5C21.8507 67.0833 15.526 67.0833 11.5964 64.6273C7.66669 62.1713 7.66669 58.2184 7.66669 50.3125V45.5208Z" stroke="#3F4946" stroke-width="5.75"/>
<path d="M65.1667 39.2898L65.6493 39.0003C73.7599 34.1333 77.8152 31.6999 81.0743 32.8749C84.3334 34.0499 84.3334 37.9453 84.3334 45.7363V50.0959C84.3334 57.8868 84.3334 61.7822 81.0743 62.9571C77.8152 64.1321 73.7599 61.6987 65.6493 56.8319L65.1667 56.5421" stroke="#3F4946" stroke-width="5.75" stroke-linecap="round"/>
<path d="M47.9166 28.75C53.2094 28.75 57.5 24.4594 57.5 19.1666C57.5 13.8739 53.2094 9.58331 47.9166 9.58331C42.6239 9.58331 38.3333 13.8739 38.3333 19.1666C38.3333 24.4594 42.6239 28.75 47.9166 28.75Z" stroke="#3F4946" stroke-width="5.75"/>
<path d="M26.8333 28.75C33.1846 28.75 38.3333 23.6013 38.3333 17.25C38.3333 10.8987 33.1846 5.75 26.8333 5.75C20.482 5.75 15.3333 10.8987 15.3333 17.25C15.3333 23.6013 20.482 28.75 26.8333 28.75Z" stroke="#3F4946" stroke-width="5.75"/>
</svg>
