<svg width="92" height="92" viewBox="0 0 92 92" fill="none" xmlns="http://www.w3.org/2000/svg">
<path d="M78.583 40.25V38.3333C78.583 23.8769 78.583 16.6487 74.0922 12.1577C69.6011 7.66667 62.373 7.66667 47.9163 7.66667H44.0834C29.6272 7.66667 22.3991 7.66667 17.9081 12.1577C13.417 16.6486 13.417 23.8768 13.4168 38.3331L13.4167 55.5833C13.4166 68.185 13.4165 74.4863 16.8969 78.7271C17.5341 79.5037 18.2462 80.2156 19.0226 80.8531C23.2636 84.3333 29.5646 84.3333 42.1663 84.3333" stroke="#3F4946" stroke-width="5.75" stroke-linecap="round" stroke-linejoin="round"/>
<path d="M28.75 26.8333H63.25" stroke="#3F4946" stroke-width="5.75" stroke-linecap="round" stroke-linejoin="round"/>
<path d="M28.75 46H51.75" stroke="#3F4946" stroke-width="5.75" stroke-linecap="round" stroke-linejoin="round"/>
<path d="M78.5833 76.6667V65.1667C78.5833 59.6873 73.4348 53.6667 67.0833 53.6667C60.7319 53.6667 55.5833 59.6873 55.5833 65.1667V78.5833C55.5833 81.7589 58.1578 84.3333 61.3333 84.3333C64.5088 84.3333 67.0833 81.7589 67.0833 78.5833V65.1667" stroke="#3F4946" stroke-width="5.75" stroke-linecap="round" stroke-linejoin="round"/>
</svg>
