<svg width="92" height="92" viewBox="0 0 92 92" fill="none" xmlns="http://www.w3.org/2000/svg">
<path d="M30.6667 26.8333H61.3334" stroke="#3F4946" stroke-width="5.75" stroke-linecap="round" stroke-linejoin="round"/>
<path d="M30.6667 42.1667H46" stroke="#3F4946" stroke-width="5.75" stroke-linecap="round" stroke-linejoin="round"/>
<path d="M49.8333 82.4167V80.5C49.8333 69.6578 49.8333 64.2367 53.2017 60.8683C56.57 57.5 61.9911 57.5 72.8333 57.5H74.75M76.6666 51.1485V38.3333C76.6666 23.8769 76.6666 16.6487 72.1755 12.1577C67.6848 7.66666 60.4562 7.66666 46 7.66666C31.5436 7.66666 24.3154 7.66666 19.8243 12.1577C15.3333 16.6487 15.3333 23.8769 15.3333 38.3333V55.7528C15.3333 68.1919 15.3333 74.4115 18.7299 78.6243C19.4161 79.4753 20.1913 80.2504 21.0424 80.9366C25.2552 84.3333 31.4748 84.3333 43.9139 84.3333C46.6187 84.3333 47.9707 84.3333 49.2092 83.8963C49.4668 83.8055 49.7191 83.7008 49.9656 83.5831C51.1504 83.0162 52.1065 82.0602 54.0189 80.1477L72.1755 61.9911C74.3916 59.7751 75.4994 58.6672 76.0832 57.2581C76.6666 55.8494 76.6666 54.2823 76.6666 51.1485Z" stroke="#3F4946" stroke-width="5.75" stroke-linecap="round" stroke-linejoin="round"/>
</svg>
