<svg width="92" height="92" viewBox="0 0 92 92" fill="none" xmlns="http://www.w3.org/2000/svg">
<path d="M61.3333 53.6667C61.3333 56.8422 63.9078 59.4167 67.0833 59.4167C70.2589 59.4167 72.8333 56.8422 72.8333 53.6667C72.8333 50.4912 70.2589 47.9167 67.0833 47.9167C63.9078 47.9167 61.3333 50.4912 61.3333 53.6667Z" stroke="#3F4946" stroke-width="5.75"/>
<path d="M15.3333 76.6666C11.0991 76.6666 7.66666 73.2343 7.66666 69C7.66666 64.7657 11.0991 61.3333 15.3333 61.3333C19.5675 61.3333 23 66.4443 23 69C23 71.5557 19.5675 76.6666 15.3333 76.6666Z" stroke="#3F4946" stroke-width="5.75"/>
<path d="M30.6667 76.6666C26.4325 76.6666 23 70.9166 23 69C23 67.0833 26.4325 61.3333 30.6667 61.3333C34.9009 61.3333 38.3333 64.7657 38.3333 69C38.3333 73.2343 34.9009 76.6666 30.6667 76.6666Z" stroke="#3F4946" stroke-width="5.75"/>
<path d="M49.8333 76.6666H61.3333C72.1755 76.6666 77.5966 76.6666 80.965 73.2983C84.3333 69.9299 84.3333 64.5088 84.3333 53.6666V49.8333C84.3333 38.9911 84.3333 33.5699 80.965 30.2016C78.5067 27.7433 74.9547 27.0791 69 26.8997M69 26.8997C66.7958 26.8333 64.2624 26.8333 61.3333 26.8333H38.3333M69 26.8997C69 23.2651 69 21.4479 68.3962 20.018C67.6196 18.178 66.1553 16.7138 64.3153 15.937C62.8854 15.3333 61.0681 15.3333 57.4337 15.3333H38.3333C23.8769 15.3333 16.6487 15.3333 12.1577 19.8243C7.66666 24.3154 7.66666 27.7102 7.66666 42.1666V49.8333" stroke="#3F4946" stroke-width="5.75" stroke-linecap="round"/>
</svg>
