<svg width="294" height="107" viewBox="0 0 294 107" fill="none" xmlns="http://www.w3.org/2000/svg">
<path d="M26.8378 69.0235C21.9506 69.0235 17.7469 67.9873 14.2265 65.9147C10.7268 63.8214 8.03475 60.9197 6.15031 57.21C4.28656 53.5 3.35471 49.2305 3.35471 44.4013C3.35471 39.5102 4.29694 35.22 6.18136 31.5307C8.08653 27.8207 10.7889 24.9295 14.2886 22.857C17.7883 20.7637 21.9506 19.7171 26.7756 19.7171C30.938 19.7171 34.5827 20.4735 37.7095 21.9865C40.8364 23.4995 43.3111 25.6238 45.1334 28.3596C46.9557 31.0954 47.9599 34.3081 48.1463 37.9972H35.6593C35.3075 35.6137 34.3754 33.6965 32.8639 32.2457C31.3727 30.7742 29.4158 30.0385 26.9931 30.0385C24.9429 30.0385 23.1517 30.5981 21.6193 31.7172C20.1076 32.8157 18.9272 34.4219 18.0782 36.5359C17.2291 38.6501 16.8046 41.2096 16.8046 44.2148C16.8046 47.2617 17.2188 49.8523 18.0471 51.9869C18.8962 54.1218 20.0869 55.7487 21.6193 56.8678C23.1517 57.9872 24.9429 58.5467 26.9931 58.5467C28.5046 58.5467 29.8612 58.2357 31.0622 57.6141C32.2839 56.9923 33.2883 56.0906 34.0751 54.9092C34.8827 53.7072 35.411 52.2668 35.6593 50.5881H48.1463C47.9392 54.2359 46.9452 57.4483 45.1645 60.2254C43.4041 62.9819 40.971 65.1375 37.8648 66.6919C34.7586 68.2463 31.0828 69.0235 26.8378 69.0235ZM69.851 4.42148V68.0909H56.6186V4.42148H69.851ZM80.451 68.0909V20.3388H93.6835V68.0909H80.451ZM87.0983 14.1833C85.131 14.1833 83.4433 13.5304 82.0352 12.2247C80.6478 10.8983 79.9539 9.31274 79.9539 7.46816C79.9539 5.6443 80.6478 4.07952 82.0352 2.77378C83.4433 1.44734 85.131 0.784119 87.0983 0.784119C89.0657 0.784119 90.743 1.44734 92.1304 2.77378C93.5386 4.07952 94.2425 5.6443 94.2425 7.46816C94.2425 9.31274 93.5386 10.8983 92.1304 12.2247C90.743 13.5304 89.0657 14.1833 87.0983 14.1833ZM104.283 68.0909V20.3388H116.895V28.7638H117.454C118.448 25.966 120.105 23.7586 122.424 22.142C124.743 20.5254 127.518 19.7171 130.748 19.7171C134.02 19.7171 136.805 20.5357 139.104 22.1731C141.403 23.7897 142.935 25.9866 143.701 28.7638H144.198C145.172 26.028 146.932 23.8415 149.479 22.2042C152.047 20.5461 155.08 19.7171 158.58 19.7171C163.032 19.7171 166.646 21.1368 169.421 23.9762C172.216 26.795 173.614 30.7951 173.614 35.9763V68.0909H160.413V38.5878C160.413 35.935 159.709 33.9453 158.301 32.6189C156.892 31.2924 155.132 30.6292 153.02 30.6292C150.618 30.6292 148.744 31.396 147.398 32.9297C146.052 34.4428 145.379 36.4427 145.379 38.9298V68.0909H132.55V38.3079C132.55 35.9661 131.877 34.1007 130.531 32.7121C129.206 31.3235 127.456 30.6292 125.281 30.6292C123.811 30.6292 122.486 31.0023 121.306 31.7484C120.146 32.4738 119.224 33.4998 118.541 34.8261C117.858 36.132 117.516 37.6655 117.516 39.4273V68.0909H104.283ZM184.315 68.0909V4.42148H197.548V28.3596H197.951C198.531 27.0746 199.37 25.769 200.467 24.4424C201.586 23.0954 203.035 21.9762 204.816 21.085C206.618 20.173 208.854 19.7171 211.526 19.7171C215.005 19.7171 218.214 20.629 221.155 22.4529C224.096 24.256 226.446 26.9815 228.206 30.6292C229.966 34.256 230.846 38.8055 230.846 44.2771C230.846 49.6035 229.987 54.1011 228.268 57.7695C226.57 61.4173 224.251 64.1842 221.31 66.0701C218.39 67.9355 215.119 68.8681 211.495 68.8681C208.927 68.8681 206.742 68.4433 204.94 67.5936C203.16 66.7437 201.7 65.6764 200.561 64.3914C199.422 63.0857 198.552 61.7696 197.951 60.4431H197.361V68.0909H184.315ZM197.268 44.2148C197.268 47.0542 197.662 49.531 198.449 51.645C199.235 53.759 200.374 55.4068 201.865 56.5882C203.356 57.7489 205.168 58.3291 207.301 58.3291C209.455 58.3291 211.277 57.7384 212.768 56.557C214.259 55.355 215.388 53.697 216.154 51.5827C216.941 49.4481 217.334 46.9922 217.334 44.2148C217.334 41.4584 216.951 39.0334 216.185 36.94C215.419 34.8467 214.29 33.2094 212.799 32.0283C211.308 30.8469 209.476 30.2562 207.301 30.2562C205.148 30.2562 203.325 30.826 201.834 31.966C200.364 33.1058 199.235 34.7225 198.449 36.8158C197.662 38.9091 197.268 41.3754 197.268 44.2148Z" fill="#3F4946"/>
<path d="M58.8802 75.1653V87.5455H57.3823V75.1653H58.8802ZM63.1155 81.9598V87.5455H61.6902V78.2603H63.0672V79.7111H63.1879C63.4054 79.2396 63.7356 78.8607 64.1785 78.5747C64.6215 78.2846 65.1932 78.1394 65.8939 78.1394C66.522 78.1394 67.0716 78.2683 67.5428 78.5263C68.0139 78.7802 68.3803 79.1671 68.642 79.687C68.9037 80.2028 69.0346 80.8558 69.0346 81.6456V87.5455H67.6093V81.7422C67.6093 81.0129 67.4201 80.4446 67.0415 80.0375C66.6629 79.6265 66.1435 79.421 65.4833 79.421C65.0282 79.421 64.6215 79.5197 64.2631 79.7172C63.9088 79.9147 63.6289 80.2028 63.4236 80.5817C63.2183 80.9603 63.1155 81.4199 63.1155 81.9598ZM78.8931 78.2603L75.4625 87.5455H74.0129L70.5824 78.2603H72.1284L74.6894 85.6593H74.7861L77.347 78.2603H78.8931ZM84.3321 87.7388C83.4382 87.7388 82.667 87.5413 82.0187 87.1464C81.3746 86.7476 80.8772 86.1914 80.5269 85.4782C80.1806 84.7608 80.0076 83.9264 80.0076 82.9753C80.0076 82.0243 80.1806 81.186 80.5269 80.4606C80.8772 79.7313 81.3644 79.163 81.9886 78.7561C82.6167 78.3449 83.3495 78.1394 84.187 78.1394C84.6703 78.1394 85.1475 78.2199 85.6186 78.3811C86.0898 78.5424 86.5186 78.8043 86.905 79.1671C87.2915 79.5258 87.5996 80.0012 87.8292 80.5936C88.0586 81.186 88.1735 81.9156 88.1735 82.782V83.3866H81.0223V82.1534H86.724C86.724 81.6293 86.6192 81.1619 86.4098 80.751C86.2045 80.3397 85.9105 80.0153 85.528 79.7777C85.1495 79.5399 84.7026 79.421 84.187 79.421C83.6195 79.421 83.1282 79.562 82.7134 79.8441C82.3028 80.1221 81.9867 80.4849 81.7651 80.9321C81.5437 81.3796 81.4329 81.8591 81.4329 82.371V83.193C81.4329 83.8943 81.5537 84.4887 81.7954 84.9762C82.0411 85.4599 82.3813 85.8286 82.8162 86.0825C83.2509 86.3325 83.7562 86.4575 84.3321 86.4575C84.7065 86.4575 85.0448 86.4049 85.3468 86.3001C85.6529 86.1914 85.9165 86.0302 86.1379 85.8167C86.3595 85.599 86.5305 85.3289 86.6513 85.0066L88.0285 85.3935C87.8834 85.8609 87.64 86.2719 87.2976 86.6267C86.9555 86.9771 86.5327 87.2512 86.0293 87.4487C85.5261 87.6422 84.9602 87.7388 84.3321 87.7388ZM96.9131 80.3397L95.6326 80.7026C95.5522 80.4888 95.4334 80.2814 95.2764 80.0798C95.1234 79.8743 94.9139 79.705 94.6481 79.572C94.3825 79.439 94.0421 79.3726 93.6274 79.3726C93.0598 79.3726 92.5867 79.5037 92.2081 79.7656C91.8337 80.0234 91.6464 80.3519 91.6464 80.751C91.6464 81.1055 91.7752 81.3857 92.033 81.5911C92.2905 81.7966 92.6934 81.9678 93.2408 82.105L94.618 82.4435C95.4475 82.6449 96.0656 82.9532 96.4721 83.3683C96.8788 83.7793 97.0822 84.3094 97.0822 84.9582C97.0822 85.4901 96.9292 85.9658 96.6232 86.3848C96.3212 86.804 95.8985 87.1345 95.3549 87.3762C94.8114 87.6179 94.1792 87.7388 93.4582 87.7388C92.5121 87.7388 91.729 87.5333 91.1089 87.1223C90.4888 86.7113 90.0962 86.1107 89.931 85.3208L91.2839 84.9823C91.4129 85.4821 91.6563 85.8568 92.0147 86.1068C92.3772 86.3565 92.8503 86.4815 93.4342 86.4815C94.0985 86.4815 94.626 86.3405 95.0167 86.0584C95.4113 85.7722 95.6086 85.4298 95.6086 85.0307C95.6086 84.7083 95.4958 84.4383 95.2704 84.2207C95.0449 83.9991 94.6986 83.8338 94.2314 83.7251L92.6853 83.3622C91.8357 83.1609 91.2115 82.8484 90.813 82.4253C90.4181 81.9982 90.2208 81.4642 90.2208 80.8234C90.2208 80.2996 90.3679 79.8361 90.6619 79.4332C90.9597 79.03 91.3645 78.7138 91.876 78.484C92.3913 78.2542 92.9752 78.1394 93.6274 78.1394C94.5456 78.1394 95.2662 78.341 95.7898 78.744C96.3171 79.1469 96.6918 79.679 96.9131 80.3397ZM103.263 78.2603V79.4694H98.4548V78.2603H103.263ZM99.856 76.0357H101.282V84.8855C101.282 85.2887 101.34 85.591 101.457 85.7924C101.578 85.9898 101.73 86.1228 101.916 86.1914C102.105 86.2559 102.304 86.2882 102.514 86.2882C102.671 86.2882 102.799 86.2799 102.9 86.2639C103.001 86.2437 103.081 86.2277 103.142 86.2155L103.432 87.4971C103.335 87.5333 103.2 87.5695 103.027 87.606C102.854 87.6461 102.634 87.6663 102.369 87.6663C101.966 87.6663 101.571 87.5797 101.185 87.4064C100.802 87.2332 100.484 86.9691 100.23 86.6146C99.9809 86.26 99.856 85.8125 99.856 85.2724V76.0357ZM105.407 87.5455V78.2603H106.832V87.5455H105.407ZM106.132 76.7129C105.854 76.7129 105.614 76.6181 105.413 76.4286C105.215 76.2392 105.117 76.0116 105.117 75.7455C105.117 75.4797 105.215 75.2519 105.413 75.0624C105.614 74.873 105.854 74.7784 106.132 74.7784C106.409 74.7784 106.647 74.873 106.844 75.0624C107.045 75.2519 107.146 75.4797 107.146 75.7455C107.146 76.0116 107.045 76.2392 106.844 76.4286C106.647 76.6181 106.409 76.7129 106.132 76.7129ZM109.443 87.5455V78.2603H110.82V79.7111H110.941C111.134 79.2155 111.446 78.8306 111.877 78.5565C112.308 78.2785 112.825 78.1394 113.429 78.1394C114.041 78.1394 114.55 78.2785 114.957 78.5565C115.368 78.8306 115.688 79.2155 115.918 79.7111H116.014C116.252 79.2316 116.608 78.8507 117.083 78.5686C117.558 78.2824 118.128 78.1394 118.793 78.1394C119.622 78.1394 120.3 78.3994 120.828 78.9193C121.355 79.4351 121.619 80.2391 121.619 81.3312V87.5455H120.194V81.3312C120.194 80.6461 120.006 80.1564 119.632 79.8624C119.258 79.5681 118.817 79.421 118.309 79.421C117.657 79.421 117.152 79.6185 116.793 80.0134C116.435 80.4042 116.256 80.9 116.256 81.5004V87.5455H114.806V81.186C114.806 80.6583 114.635 80.233 114.293 79.9105C113.951 79.5842 113.51 79.421 112.97 79.421C112.6 79.421 112.253 79.5197 111.931 79.7172C111.613 79.9147 111.356 80.1887 111.158 80.5394C110.965 80.8859 110.868 81.2869 110.868 81.7422V87.5455H109.443ZM128.115 87.7388C127.221 87.7388 126.45 87.5413 125.802 87.1464C125.158 86.7476 124.66 86.1914 124.31 85.4782C123.964 84.7608 123.791 83.9264 123.791 82.9753C123.791 82.0243 123.964 81.186 124.31 80.4606C124.66 79.7313 125.148 79.163 125.772 78.7561C126.4 78.3449 127.133 78.1394 127.97 78.1394C128.453 78.1394 128.93 78.2199 129.402 78.3811C129.873 78.5424 130.302 78.8043 130.688 79.1671C131.075 79.5258 131.383 80.0012 131.612 80.5936C131.842 81.186 131.956 81.9156 131.956 82.782V83.3866H124.805V82.1534H130.507C130.507 81.6293 130.402 81.1619 130.193 80.751C129.987 80.3397 129.693 80.0153 129.311 79.7777C128.932 79.5399 128.486 79.421 127.97 79.421C127.402 79.421 126.911 79.562 126.496 79.8441C126.086 80.1221 125.77 80.4849 125.548 80.9321C125.327 81.3796 125.216 81.8591 125.216 82.371V83.193C125.216 83.8943 125.337 84.4887 125.578 84.9762C125.824 85.4599 126.164 85.8286 126.599 86.0825C127.034 86.3325 127.539 86.4575 128.115 86.4575C128.489 86.4575 128.828 86.4049 129.13 86.3001C129.436 86.1914 129.699 86.0302 129.921 85.8167C130.142 85.599 130.314 85.3289 130.434 85.0066L131.811 85.3935C131.667 85.8609 131.423 86.2719 131.081 86.6267C130.738 86.9771 130.316 87.2512 129.812 87.4487C129.309 87.6422 128.743 87.7388 128.115 87.7388ZM135.55 81.9598V87.5455H134.125V78.2603H135.502V79.7111H135.623C135.84 79.2396 136.17 78.8607 136.613 78.5747C137.056 78.2846 137.628 78.1394 138.328 78.1394C138.957 78.1394 139.506 78.2683 139.977 78.5263C140.448 78.7802 140.815 79.1671 141.077 79.687C141.338 80.2028 141.469 80.8558 141.469 81.6456V87.5455H140.044V81.7422C140.044 81.0129 139.855 80.4446 139.476 80.0375C139.097 79.6265 138.578 79.421 137.918 79.421C137.463 79.421 137.056 79.5197 136.698 79.7172C136.343 79.9147 136.063 80.2028 135.858 80.5817C135.653 80.9603 135.55 81.4199 135.55 81.9598ZM148.108 78.2603V79.4694H143.301V78.2603H148.108ZM144.702 76.0357H146.127V84.8855C146.127 85.2887 146.186 85.591 146.303 85.7924C146.423 85.9898 146.577 86.1228 146.762 86.1914C146.951 86.2559 147.15 86.2882 147.36 86.2882C147.517 86.2882 147.646 86.2799 147.746 86.2639C147.847 86.2437 147.927 86.2277 147.988 86.2155L148.278 87.4971C148.181 87.5333 148.046 87.5695 147.873 87.606C147.7 87.6461 147.48 87.6663 147.215 87.6663C146.812 87.6663 146.417 87.5797 146.031 87.4064C145.648 87.2332 145.33 86.9691 145.077 86.6146C144.827 86.26 144.702 85.8125 144.702 85.2724V76.0357ZM153.922 87.7388C153.084 87.7388 152.35 87.5394 151.717 87.1406C151.089 86.7415 150.598 86.1834 150.244 85.466C149.893 84.7486 149.718 83.9104 149.718 82.9513C149.718 81.9841 149.893 81.1398 150.244 80.4183C150.598 79.697 151.089 79.137 151.717 78.7379C152.35 78.3388 153.084 78.1394 153.922 78.1394C154.759 78.1394 155.492 78.3388 156.12 78.7379C156.753 79.137 157.244 79.697 157.594 80.4183C157.948 81.1398 158.126 81.9841 158.126 82.9513C158.126 83.9104 157.948 84.7486 157.594 85.466C157.244 86.1834 156.753 86.7415 156.12 87.1406C155.492 87.5394 154.759 87.7388 153.922 87.7388ZM153.922 86.4575C154.558 86.4575 155.082 86.294 155.492 85.9677C155.903 85.6413 156.207 85.2121 156.404 84.68C156.602 84.1482 156.7 83.5719 156.7 82.9513C156.7 82.3307 156.602 81.7524 156.404 81.2164C156.207 80.6804 155.903 80.2471 155.492 79.9166C155.082 79.5861 154.558 79.421 153.922 79.421C153.286 79.421 152.762 79.5861 152.352 79.9166C151.941 80.2471 151.637 80.6804 151.439 81.2164C151.242 81.7524 151.143 82.3307 151.143 82.9513C151.143 83.5719 151.242 84.1482 151.439 84.68C151.637 85.2121 151.941 85.6413 152.352 85.9677C152.762 86.294 153.286 86.4575 153.922 86.4575ZM166.873 80.3397L165.592 80.7026C165.512 80.4888 165.393 80.2814 165.236 80.0798C165.083 79.8743 164.874 79.705 164.608 79.572C164.342 79.439 164.002 79.3726 163.587 79.3726C163.019 79.3726 162.546 79.5037 162.168 79.7656C161.793 80.0234 161.606 80.3519 161.606 80.751C161.606 81.1055 161.735 81.3857 161.993 81.5911C162.25 81.7966 162.653 81.9678 163.201 82.105L164.578 82.4435C165.407 82.6449 166.025 82.9532 166.432 83.3683C166.839 83.7793 167.042 84.3094 167.042 84.9582C167.042 85.4901 166.889 85.9658 166.583 86.3848C166.281 86.804 165.858 87.1345 165.315 87.3762C164.771 87.6179 164.139 87.7388 163.418 87.7388C162.472 87.7388 161.689 87.5333 161.069 87.1223C160.448 86.7113 160.056 86.1107 159.891 85.3208L161.244 84.9823C161.372 85.4821 161.616 85.8568 161.975 86.1068C162.337 86.3565 162.81 86.4815 163.394 86.4815C164.058 86.4815 164.586 86.3405 164.976 86.0584C165.371 85.7722 165.568 85.4298 165.568 85.0307C165.568 84.7083 165.455 84.4383 165.23 84.2207C165.004 83.9991 164.658 83.8338 164.191 83.7251L162.645 83.3622C161.796 83.1609 161.171 82.8484 160.773 82.4253C160.378 81.9982 160.181 81.4642 160.181 80.8234C160.181 80.2996 160.328 79.8361 160.622 79.4332C160.92 79.03 161.324 78.7138 161.836 78.484C162.351 78.2542 162.935 78.1394 163.587 78.1394C164.505 78.1394 165.226 78.341 165.749 78.744C166.277 79.1469 166.651 79.679 166.873 80.3397ZM173.971 87.5455V78.2603H175.397V87.5455H173.971ZM174.696 76.7129C174.418 76.7129 174.179 76.6181 173.977 76.4286C173.78 76.2392 173.681 76.0116 173.681 75.7455C173.681 75.4797 173.78 75.2519 173.977 75.0624C174.179 74.873 174.418 74.7784 174.696 74.7784C174.974 74.7784 175.211 74.873 175.409 75.0624C175.61 75.2519 175.711 75.4797 175.711 75.7455C175.711 76.0116 175.61 76.2392 175.409 76.4286C175.211 76.6181 174.974 76.7129 174.696 76.7129ZM179.433 81.9598V87.5455H178.007V78.2603H179.384V79.7111H179.505C179.723 79.2396 180.053 78.8607 180.496 78.5747C180.939 78.2846 181.511 78.1394 182.211 78.1394C182.839 78.1394 183.389 78.2683 183.86 78.5263C184.331 78.7802 184.698 79.1671 184.959 79.687C185.221 80.2028 185.352 80.8558 185.352 81.6456V87.5455H183.926V81.7422C183.926 81.0129 183.737 80.4446 183.359 80.0375C182.98 79.6265 182.461 79.421 181.8 79.421C181.346 79.421 180.939 79.5197 180.58 79.7172C180.226 79.9147 179.946 80.2028 179.741 80.5817C179.535 80.9603 179.433 81.4199 179.433 81.9598ZM191.46 87.7388C190.686 87.7388 190.004 87.5435 189.412 87.1525C188.82 86.7576 188.357 86.2014 188.023 85.484C187.689 84.7627 187.522 83.9104 187.522 82.9272C187.522 81.9518 187.689 81.1055 188.023 80.3881C188.357 79.6707 188.822 79.1168 189.418 78.7257C190.014 78.3349 190.703 78.1394 191.484 78.1394C192.088 78.1394 192.565 78.2401 192.915 78.4417C193.27 78.6392 193.539 78.8648 193.725 79.1187C193.914 79.3685 194.061 79.5742 194.166 79.7354H194.286V75.1653H195.712V87.5455H194.335V86.1189H194.166C194.061 86.2882 193.912 86.5017 193.719 86.7595C193.525 87.0134 193.25 87.2412 192.891 87.4426C192.533 87.6401 192.056 87.7388 191.46 87.7388ZM191.653 86.4575C192.225 86.4575 192.708 86.3081 193.103 86.01C193.497 85.7077 193.797 85.2907 194.002 84.7586C194.208 84.2226 194.31 83.6042 194.31 82.9029C194.31 82.2098 194.21 81.6033 194.008 81.0834C193.807 80.5593 193.509 80.1525 193.115 79.8624C192.72 79.5681 192.233 79.421 191.653 79.421C191.049 79.421 190.546 79.5761 190.143 79.8864C189.744 80.1926 189.444 80.6099 189.243 81.1379C189.046 81.6617 188.947 82.2499 188.947 82.9029C188.947 83.5638 189.048 84.1643 189.249 84.7044C189.454 85.2403 189.756 85.6674 190.155 85.9859C190.558 86.3001 191.057 86.4575 191.653 86.4575ZM202.41 87.7388C201.516 87.7388 200.745 87.5413 200.097 87.1464C199.453 86.7476 198.955 86.1914 198.605 85.4782C198.259 84.7608 198.085 83.9264 198.085 82.9753C198.085 82.0243 198.259 81.186 198.605 80.4606C198.955 79.7313 199.442 79.163 200.067 78.7561C200.695 78.3449 201.427 78.1394 202.265 78.1394C202.748 78.1394 203.225 78.2199 203.697 78.3811C204.167 78.5424 204.596 78.8043 204.983 79.1671C205.369 79.5258 205.678 80.0012 205.907 80.5936C206.137 81.186 206.251 81.9156 206.251 82.782V83.3866H199.1V82.1534H204.802C204.802 81.6293 204.697 81.1619 204.488 80.751C204.282 80.3397 203.988 80.0153 203.606 79.7777C203.227 79.5399 202.78 79.421 202.265 79.421C201.697 79.421 201.206 79.562 200.791 79.8441C200.38 80.1221 200.065 80.4849 199.843 80.9321C199.622 81.3796 199.511 81.8591 199.511 82.371V83.193C199.511 83.8943 199.632 84.4887 199.873 84.9762C200.119 85.4599 200.459 85.8286 200.894 86.0825C201.329 86.3325 201.834 86.4575 202.41 86.4575C202.784 86.4575 203.123 86.4049 203.425 86.3001C203.731 86.1914 203.994 86.0302 204.216 85.8167C204.437 85.599 204.608 85.3289 204.729 85.0066L206.106 85.3935C205.961 85.8609 205.718 86.2719 205.376 86.6267C205.033 86.9771 204.61 87.2512 204.107 87.4487C203.604 87.6422 203.038 87.7388 202.41 87.7388ZM208.42 91.0273V78.2603H209.797V79.7354H209.966C210.071 79.5742 210.216 79.3685 210.401 79.1187C210.59 78.8648 210.86 78.6392 211.21 78.4417C211.564 78.2401 212.044 78.1394 212.648 78.1394C213.429 78.1394 214.117 78.3349 214.713 78.7257C215.309 79.1168 215.774 79.6707 216.108 80.3881C216.443 81.1055 216.61 81.9518 216.61 82.9272C216.61 83.9104 216.443 84.7627 216.108 85.484C215.774 86.2014 215.311 86.7576 214.719 87.1525C214.127 87.5435 213.445 87.7388 212.672 87.7388C212.076 87.7388 211.599 87.6401 211.24 87.4426C210.882 87.2412 210.606 87.0134 210.413 86.7595C210.22 86.5017 210.071 86.2882 209.966 86.1189H209.845V91.0273H208.42ZM209.821 82.9029C209.821 83.6042 209.924 84.2226 210.129 84.7586C210.334 85.2907 210.634 85.7077 211.029 86.01C211.423 86.3081 211.907 86.4575 212.478 86.4575C213.074 86.4575 213.572 86.3001 213.97 85.9859C214.373 85.6674 214.675 85.2403 214.876 84.7044C215.082 84.1643 215.184 83.5638 215.184 82.9029C215.184 82.2499 215.084 81.6617 214.882 81.1379C214.685 80.6099 214.385 80.1926 213.982 79.8864C213.584 79.5761 213.082 79.421 212.478 79.421C211.899 79.421 211.411 79.5681 211.017 79.8624C210.622 80.1525 210.324 80.5593 210.123 81.0834C209.922 81.6033 209.821 82.2098 209.821 82.9029ZM222.674 87.7388C221.78 87.7388 221.009 87.5413 220.361 87.1464C219.716 86.7476 219.219 86.1914 218.869 85.4782C218.522 84.7608 218.349 83.9264 218.349 82.9753C218.349 82.0243 218.522 81.186 218.869 80.4606C219.219 79.7313 219.706 79.163 220.33 78.7561C220.959 78.3449 221.691 78.1394 222.529 78.1394C223.012 78.1394 223.489 78.2199 223.96 78.3811C224.431 78.5424 224.86 78.8043 225.247 79.1671C225.633 79.5258 225.941 80.0012 226.171 80.5936C226.4 81.186 226.515 81.9156 226.515 82.782V83.3866H219.364V82.1534H225.066C225.066 81.6293 224.961 81.1619 224.751 80.751C224.546 80.3397 224.252 80.0153 223.87 79.7777C223.491 79.5399 223.044 79.421 222.529 79.421C221.961 79.421 221.47 79.562 221.055 79.8441C220.644 80.1221 220.328 80.4849 220.107 80.9321C219.885 81.3796 219.775 81.8591 219.775 82.371V83.193C219.775 83.8943 219.896 84.4887 220.137 84.9762C220.383 85.4599 220.723 85.8286 221.158 86.0825C221.593 86.3325 222.098 86.4575 222.674 86.4575C223.048 86.4575 223.386 86.4049 223.688 86.3001C223.994 86.1914 224.258 86.0302 224.48 85.8167C224.701 85.599 224.872 85.3289 224.993 85.0066L226.37 85.3935C226.225 85.8609 225.982 86.2719 225.639 86.6267C225.297 86.9771 224.874 87.2512 224.371 87.4487C223.868 87.6422 223.302 87.7388 222.674 87.7388ZM230.109 81.9598V87.5455H228.683V78.2603H230.06V79.7111H230.181C230.399 79.2396 230.729 78.8607 231.172 78.5747C231.615 78.2846 232.186 78.1394 232.887 78.1394C233.515 78.1394 234.065 78.2683 234.536 78.5263C235.007 78.7802 235.374 79.1671 235.635 79.687C235.897 80.2028 236.028 80.8558 236.028 81.6456V87.5455H234.603V81.7422C234.603 81.0129 234.413 80.4446 234.035 80.0375C233.656 79.6265 233.137 79.421 232.477 79.421C232.021 79.421 231.615 79.5197 231.256 79.7172C230.902 79.9147 230.622 80.2028 230.417 80.5817C230.211 80.9603 230.109 81.4199 230.109 81.9598ZM242.136 87.7388C241.363 87.7388 240.68 87.5435 240.088 87.1525C239.496 86.7576 239.033 86.2014 238.699 85.484C238.365 84.7627 238.198 83.9104 238.198 82.9272C238.198 81.9518 238.365 81.1055 238.699 80.3881C239.033 79.6707 239.498 79.1168 240.094 78.7257C240.69 78.3349 241.379 78.1394 242.16 78.1394C242.764 78.1394 243.24 78.2401 243.592 78.4417C243.945 78.6392 244.214 78.8648 244.401 79.1187C244.591 79.3685 244.737 79.5742 244.841 79.7354H244.963V75.1653H246.387V87.5455H245.011V86.1189H244.841C244.737 86.2882 244.589 86.5017 244.394 86.7595C244.202 87.0134 243.925 87.2412 243.568 87.4426C243.208 87.6401 242.732 87.7388 242.136 87.7388ZM242.329 86.4575C242.901 86.4575 243.383 86.3081 243.779 86.01C244.173 85.7077 244.472 85.2907 244.678 84.7586C244.885 84.2226 244.987 83.6042 244.987 82.9029C244.987 82.2098 244.885 81.6033 244.683 81.0834C244.484 80.5593 244.185 80.1525 243.792 79.8624C243.396 79.5681 242.909 79.421 242.329 79.421C241.725 79.421 241.222 79.5761 240.819 79.8864C240.42 80.1926 240.12 80.6099 239.919 81.1379C239.722 81.6617 239.623 82.2499 239.623 82.9029C239.623 83.5638 239.724 84.1643 239.925 84.7044C240.13 85.2403 240.432 85.6674 240.831 85.9859C241.234 86.3001 241.733 86.4575 242.329 86.4575ZM253.085 87.7388C252.191 87.7388 251.421 87.5413 250.772 87.1464C250.128 86.7476 249.63 86.1914 249.28 85.4782C248.935 84.7608 248.76 83.9264 248.76 82.9753C248.76 82.0243 248.935 81.186 249.28 80.4606C249.63 79.7313 250.119 79.163 250.743 78.7561C251.37 78.3449 252.104 78.1394 252.942 78.1394C253.423 78.1394 253.902 78.2199 254.373 78.3811C254.845 78.5424 255.272 78.8043 255.659 79.1671C256.045 79.5258 256.353 80.0012 256.582 80.5936C256.813 81.186 256.927 81.9156 256.927 82.782V83.3866H249.776V82.1534H255.479C255.479 81.6293 255.374 81.1619 255.163 80.751C254.959 80.3397 254.665 80.0153 254.281 79.7777C253.904 79.5399 253.457 79.421 252.942 79.421C252.374 79.421 251.883 79.562 251.467 79.8441C251.057 80.1221 250.741 80.4849 250.52 80.9321C250.299 81.3796 250.187 81.8591 250.187 82.371V83.193C250.187 83.8943 250.308 84.4887 250.549 84.9762C250.794 85.4599 251.134 85.8286 251.569 86.0825C252.004 86.3325 252.51 86.4575 253.085 86.4575C253.46 86.4575 253.8 86.4049 254.101 86.3001C254.407 86.1914 254.67 86.0302 254.891 85.8167C255.114 85.599 255.284 85.3289 255.406 85.0066L256.784 85.3935C256.638 85.8609 256.395 86.2719 256.052 86.6267C255.71 86.9771 255.287 87.2512 254.784 87.4487C254.281 87.6422 253.715 87.7388 253.085 87.7388ZM260.52 81.9598V87.5455H259.097V78.2603H260.472V79.7111H260.593C260.812 79.2396 261.14 78.8607 261.585 78.5747C262.027 78.2846 262.598 78.1394 263.3 78.1394C263.927 78.1394 264.476 78.2683 264.947 78.5263C265.419 78.7802 265.786 79.1671 266.048 79.687C266.308 80.2028 266.439 80.8558 266.439 81.6456V87.5455H265.016V81.7422C265.016 81.0129 264.826 80.4446 264.447 80.0375C264.068 79.6265 263.548 79.421 262.889 79.421C262.433 79.421 262.027 79.5197 261.67 79.7172C261.315 79.9147 261.036 80.2028 260.829 80.5817C260.623 80.9603 260.52 81.4199 260.52 81.9598ZM273.08 78.2603V79.4694H268.271V78.2603H273.08ZM269.673 76.0357H271.097V84.8855C271.097 85.2887 271.158 85.591 271.275 85.7924C271.394 85.9898 271.547 86.1228 271.731 86.1914C271.921 86.2559 272.12 86.2882 272.331 86.2882C272.487 86.2882 272.616 86.2799 272.718 86.2639C272.817 86.2437 272.898 86.2277 272.958 86.2155L273.248 87.4971C273.153 87.5333 273.017 87.5695 272.844 87.606C272.672 87.6461 272.451 87.6663 272.186 87.6663C271.782 87.6663 271.389 87.5797 271.002 87.4064C270.619 87.2332 270.3 86.9691 270.048 86.6146C269.797 86.26 269.673 85.8125 269.673 85.2724V76.0357ZM279.013 87.7388C278.119 87.7388 277.349 87.5413 276.7 87.1464C276.056 86.7476 275.558 86.1914 275.208 85.4782C274.863 84.7608 274.688 83.9264 274.688 82.9753C274.688 82.0243 274.863 81.186 275.208 80.4606C275.558 79.7313 276.047 79.163 276.671 78.7561C277.298 78.3449 278.032 78.1394 278.868 78.1394C279.351 78.1394 279.83 78.2199 280.301 78.3811C280.77 78.5424 281.2 78.8043 281.586 79.1671C281.973 79.5258 282.281 80.0012 282.51 80.5936C282.741 81.186 282.855 81.9156 282.855 82.782V83.3866H275.704V82.1534H281.404C281.404 81.6293 281.3 81.1619 281.091 80.751C280.887 80.3397 280.593 80.0153 280.209 79.7777C279.832 79.5399 279.385 79.421 278.868 79.421C278.301 79.421 277.811 79.562 277.395 79.8441C276.984 80.1221 276.669 80.4849 276.447 80.9321C276.226 81.3796 276.115 81.8591 276.115 82.371V83.193C276.115 83.8943 276.236 84.4887 276.477 84.9762C276.722 85.4599 277.062 85.8286 277.497 86.0825C277.932 86.3325 278.437 86.4575 279.013 86.4575C279.387 86.4575 279.725 86.4049 280.029 86.3001C280.335 86.1914 280.598 86.0302 280.819 85.8167C281.042 85.599 281.212 85.3289 281.334 85.0066L282.709 85.3935C282.566 85.8609 282.323 86.2719 281.98 86.6267C281.637 86.9771 281.215 87.2512 280.712 87.4487C280.206 87.6422 279.643 87.7388 279.013 87.7388ZM291.595 80.3397L290.314 80.7026C290.234 80.4888 290.115 80.2814 289.957 80.0798C289.804 79.8743 289.595 79.705 289.33 79.572C289.063 79.439 288.723 79.3726 288.31 79.3726C287.741 79.3726 287.267 79.5037 286.891 79.7656C286.514 80.0234 286.327 80.3519 286.327 80.751C286.327 81.1055 286.456 81.3857 286.716 81.5911C286.973 81.7966 287.374 81.9678 287.923 82.105L289.298 82.4435C290.129 82.6449 290.747 82.9532 291.155 83.3683C291.561 83.7793 291.765 84.3094 291.765 84.9582C291.765 85.4901 291.612 85.9658 291.305 86.3848C291.002 86.804 290.579 87.1345 290.037 87.3762C289.493 87.6179 288.861 87.7388 288.139 87.7388C287.194 87.7388 286.409 87.5333 285.79 87.1223C285.17 86.7113 284.777 86.1107 284.611 85.3208L285.965 84.9823C286.094 85.4821 286.339 85.8568 286.696 86.1068C287.058 86.3565 287.532 86.4815 288.115 86.4815C288.781 86.4815 289.308 86.3405 289.697 86.0584C290.093 85.7722 290.29 85.4298 290.29 85.0307C290.29 84.7083 290.178 84.4383 289.952 84.2207C289.726 83.9991 289.381 83.8338 288.912 83.7251L287.367 83.3622C286.516 83.1609 285.892 82.8484 285.493 82.4253C285.1 81.9982 284.903 81.4642 284.903 80.8234C284.903 80.2996 285.049 79.8361 285.343 79.4332C285.642 79.03 286.045 78.7138 286.558 78.484C287.073 78.2542 287.656 78.1394 288.31 78.1394C289.228 78.1394 289.947 78.341 290.472 78.744C290.999 79.1469 291.373 79.679 291.595 80.3397Z" fill="#3F4946"/>
<path d="M233.256 24.3182H242.975C245.66 24.3182 247.835 26.4956 247.835 29.1818V36.4773H233.256V24.3182Z" fill="#066B5B"/>
<path d="M80.1818 0H89.9008C92.5847 0 94.7603 2.17753 94.7603 4.86364V14.5909H80.1818V0Z" fill="#066B5B"/>
<path d="M233.256 38.9091H255.124C257.809 38.9091 259.983 41.0865 259.983 43.7727V51.0682H233.256V38.9091Z" fill="#066B5B"/>
<path d="M233.256 55.9318H272.132C274.817 55.9318 276.992 58.1093 276.992 60.7955V68.0909H233.256V55.9318Z" fill="#066B5B"/>
</svg>
