<svg width="92" height="92" viewBox="0 0 92 92" fill="none" xmlns="http://www.w3.org/2000/svg">
<path d="M7.66663 38.3333C7.66663 24.8912 7.66663 18.1701 11.1471 13.6464C11.7843 12.8182 12.4962 12.0589 13.2726 11.3792C17.5136 7.66667 23.8146 7.66667 36.4166 7.66667H55.5833C68.1854 7.66667 74.4862 7.66667 78.7274 11.3792C79.5037 12.0589 80.2155 12.8182 80.8526 13.6464C84.3333 18.1701 84.3333 24.8912 84.3333 38.3333C84.3333 51.7753 84.3333 58.4967 80.8526 63.0204C80.2155 63.8484 79.5037 64.6078 78.7274 65.2874C74.4862 69 68.1854 69 55.5833 69H36.4166C23.8146 69 17.5136 69 13.2726 65.2874C12.4962 64.6078 11.7843 63.8484 11.1471 63.0204C7.66663 58.4967 7.66663 51.7753 7.66663 38.3333Z" stroke="#3F4946" stroke-width="5.75"/>
<path d="M65.1667 84.3333L49.1944 69M26.8334 84.3333L42.8057 69" stroke="#3F4946" stroke-width="5.75" stroke-linecap="round" stroke-linejoin="round"/>
<path d="M46 69V88.1667" stroke="#3F4946" stroke-width="5.75" stroke-linecap="round" stroke-linejoin="round"/>
<path d="M46 47.9167C52.3513 47.9167 57.5 42.7679 57.5 36.4167C57.5 30.0654 52.3513 24.9167 46 24.9167C39.6487 24.9167 34.5 30.0654 34.5 36.4167C34.5 42.7679 39.6487 47.9167 46 47.9167Z" stroke="#3F4946" stroke-width="5.75"/>
</svg>
